<svg width="853" height="223" viewBox="0 0 853 223" fill="none" xmlns="http://www.w3.org/2000/svg">
<ellipse cx="114.873" cy="111.402" rx="114.873" ry="111.402" fill="#F97316"/>
<ellipse cx="206.492" cy="177.701" rx="46.5074" ry="45.1019" fill="#F97316"/>
<path d="M167.153 110.951C167.153 137.93 144.451 160.685 115.338 160.685C86.2256 160.685 63.5232 137.93 63.5232 110.951C63.5232 83.9712 86.2256 61.2157 115.338 61.2157C144.451 61.2157 167.153 83.9712 167.153 110.951Z" fill="#F97316" stroke="#F5F5F5" stroke-width="34.0317"/>
<path d="M168.547 77.4498C172.525 73.4245 179.35 75.198 180.719 80.6125L195.687 139.817C197.032 145.138 192.081 150.001 186.734 148.612L128.279 133.422C122.932 132.032 121.152 125.42 125.06 121.464L168.547 77.4498Z" fill="#F5F5F5"/>
<path d="M230.56 177.081H228.598L223.551 166.07C223.323 165.572 222.95 165.149 222.479 164.851C222.008 164.554 221.458 164.396 220.895 164.396H199.531C198.969 164.396 198.419 164.554 197.947 164.851C197.476 165.149 197.103 165.572 196.875 166.07L191.828 177.081H189.866C189.481 177.081 189.111 177.23 188.839 177.494C188.566 177.758 188.413 178.117 188.413 178.491C188.413 178.864 188.566 179.223 188.839 179.487C189.111 179.752 189.481 179.9 189.866 179.9H191.32V193.994C191.32 194.742 191.626 195.459 192.171 195.988C192.716 196.516 193.455 196.813 194.226 196.813H198.586C199.357 196.813 200.097 196.516 200.642 195.988C201.187 195.459 201.493 194.742 201.493 193.994V192.585H218.933V193.994C218.933 194.742 219.24 195.459 219.785 195.988C220.33 196.516 221.069 196.813 221.84 196.813H226.2C226.971 196.813 227.71 196.516 228.255 195.988C228.801 195.459 229.107 194.742 229.107 193.994V179.9H230.56C230.946 179.9 231.315 179.752 231.588 179.487C231.86 179.223 232.013 178.864 232.013 178.491C232.013 178.117 231.86 177.758 231.588 177.494C231.315 177.23 230.946 177.081 230.56 177.081ZM195.009 177.081L199.531 167.215H220.895L225.417 177.081H195.009Z" fill="#F5F5F5"/>
<path d="M342.838 90.5827H327.565C327.129 88.078 326.326 85.8591 325.156 83.9261C323.985 81.9659 322.528 80.3052 320.786 78.9439C319.043 77.5826 317.056 76.5617 314.824 75.881C312.618 75.1732 310.236 74.8192 307.677 74.8192C303.13 74.8192 299.101 75.9627 295.589 78.2496C292.077 80.5093 289.327 83.8308 287.339 88.2141C285.352 92.5702 284.358 97.8928 284.358 104.182C284.358 110.58 285.352 115.97 287.339 120.354C289.354 124.71 292.104 128.004 295.589 130.237C299.101 132.442 303.117 133.544 307.636 133.544C310.141 133.544 312.482 133.218 314.66 132.564C316.865 131.884 318.839 130.89 320.582 129.583C322.351 128.276 323.835 126.67 325.033 124.764C326.258 122.858 327.102 120.68 327.565 118.23L342.838 118.312C342.267 122.287 341.028 126.017 339.122 129.501C337.244 132.986 334.78 136.063 331.73 138.731C328.681 141.372 325.115 143.441 321.031 144.938C316.947 146.408 312.414 147.143 307.432 147.143C300.081 147.143 293.52 145.442 287.748 142.039C281.976 138.636 277.429 133.721 274.108 127.296C270.786 120.871 269.126 113.166 269.126 104.182C269.126 95.1702 270.8 87.4654 274.149 81.0675C277.498 74.6423 282.058 69.7281 287.83 66.3249C293.601 62.9218 300.135 61.2202 307.432 61.2202C312.087 61.2202 316.416 61.8736 320.418 63.1804C324.42 64.4872 327.987 66.4066 331.118 68.9386C334.249 71.4433 336.822 74.5198 338.836 78.168C340.878 81.7889 342.212 85.9272 342.838 90.5827ZM364.91 147.266C360.935 147.266 357.355 146.558 354.17 145.142C351.012 143.699 348.507 141.576 346.656 138.772C344.831 135.967 343.919 132.51 343.919 128.399C343.919 124.859 344.573 121.933 345.88 119.619C347.186 117.304 348.97 115.453 351.229 114.065C353.489 112.676 356.035 111.628 358.866 110.92C361.725 110.185 364.679 109.654 367.728 109.327C371.403 108.946 374.385 108.606 376.672 108.306C378.958 107.98 380.619 107.49 381.654 106.836C382.716 106.156 383.246 105.107 383.246 103.692V103.447C383.246 100.37 382.334 97.988 380.51 96.3001C378.686 94.6121 376.059 93.7681 372.629 93.7681C369.008 93.7681 366.135 94.5576 364.012 96.1367C361.915 97.7158 360.5 99.5807 359.765 101.732L345.961 99.7713C347.05 95.9598 348.847 92.7744 351.352 90.2152C353.857 87.6288 356.92 85.6958 360.541 84.4162C364.161 83.1094 368.164 82.456 372.547 82.456C375.569 82.456 378.577 82.8099 381.572 83.5178C384.567 84.2256 387.303 85.3963 389.781 87.0298C392.258 88.6361 394.246 90.8278 395.743 93.6048C397.268 96.3817 398.03 99.853 398.03 104.018V146H383.818V137.383H383.328C382.43 139.126 381.164 140.759 379.53 142.284C377.924 143.781 375.896 144.993 373.445 145.918C371.022 146.817 368.177 147.266 364.91 147.266ZM368.749 136.403C371.717 136.403 374.289 135.818 376.467 134.647C378.645 133.449 380.32 131.87 381.49 129.91C382.688 127.95 383.287 125.812 383.287 123.498V116.107C382.824 116.488 382.035 116.842 380.919 117.168C379.83 117.495 378.605 117.781 377.243 118.026C375.882 118.271 374.534 118.489 373.2 118.679C371.866 118.87 370.709 119.033 369.729 119.169C367.524 119.469 365.55 119.959 363.808 120.64C362.065 121.32 360.69 122.273 359.683 123.498C358.676 124.696 358.172 126.248 358.172 128.154C358.172 130.876 359.166 132.932 361.153 134.32C363.141 135.709 365.672 136.403 368.749 136.403ZM403.695 146V83.2727H418.029V93.7273H418.682C419.826 90.1063 421.786 87.3157 424.563 85.3555C427.367 83.368 430.566 82.3743 434.16 82.3743C434.977 82.3743 435.889 82.4151 436.896 82.4968C437.931 82.5513 438.788 82.6465 439.469 82.7827V96.3817C438.843 96.1639 437.849 95.9734 436.488 95.81C435.154 95.6194 433.861 95.5241 432.608 95.5241C429.913 95.5241 427.49 96.1095 425.339 97.2802C423.216 98.4236 421.541 100.016 420.316 102.058C419.091 104.1 418.478 106.455 418.478 109.123V146H403.695ZM460.069 62.3636H478.61L503.439 122.967H504.42L529.249 62.3636H547.79V146H533.251V88.5408H532.475L509.361 145.755H498.498L475.384 88.4183H474.608V146H460.069V62.3636ZM572.485 147.266C568.51 147.266 564.93 146.558 561.745 145.142C558.587 143.699 556.082 141.576 554.231 138.772C552.406 135.967 551.494 132.51 551.494 128.399C551.494 124.859 552.148 121.933 553.455 119.619C554.761 117.304 556.545 115.453 558.804 114.065C561.064 112.676 563.61 111.628 566.441 110.92C569.3 110.185 572.254 109.654 575.303 109.327C578.978 108.946 581.96 108.606 584.247 108.306C586.533 107.98 588.194 107.49 589.229 106.836C590.291 106.156 590.821 105.107 590.821 103.692V103.447C590.821 100.37 589.909 97.988 588.085 96.3001C586.261 94.6121 583.634 93.7681 580.204 93.7681C576.583 93.7681 573.71 94.5576 571.587 96.1367C569.49 97.7158 568.075 99.5807 567.34 101.732L553.536 99.7713C554.625 95.9598 556.422 92.7744 558.927 90.2152C561.432 87.6288 564.495 85.6958 568.116 84.4162C571.736 83.1094 575.739 82.456 580.122 82.456C583.144 82.456 586.152 82.8099 589.147 83.5178C592.142 84.2256 594.878 85.3963 597.356 87.0298C599.833 88.6361 601.821 90.8278 603.318 93.6048C604.843 96.3817 605.605 99.853 605.605 104.018V146H591.393V137.383H590.903C590.005 139.126 588.739 140.759 587.105 142.284C585.499 143.781 583.471 144.993 581.02 145.918C578.597 146.817 575.752 147.266 572.485 147.266ZM576.324 136.403C579.292 136.403 581.864 135.818 584.042 134.647C586.22 133.449 587.895 131.87 589.065 129.91C590.263 127.95 590.862 125.812 590.862 123.498V116.107C590.399 116.488 589.61 116.842 588.494 117.168C587.405 117.495 586.18 117.781 584.818 118.026C583.457 118.271 582.109 118.489 580.775 118.679C579.441 118.87 578.284 119.033 577.304 119.169C575.099 119.469 573.125 119.959 571.383 120.64C569.64 121.32 568.265 122.273 567.258 123.498C566.251 124.696 565.747 126.248 565.747 128.154C565.747 130.876 566.741 132.932 568.728 134.32C570.716 135.709 573.247 136.403 576.324 136.403ZM626.053 109.246V146H611.27V83.2727H625.4V93.9315H626.135C627.578 90.4194 629.878 87.6288 633.037 85.5597C636.222 83.4905 640.156 82.456 644.839 82.456C649.168 82.456 652.938 83.3816 656.151 85.233C659.391 87.0843 661.895 89.766 663.665 93.2781C665.462 96.7901 666.347 101.051 666.32 106.06V146H651.536V108.347C651.536 104.155 650.447 100.874 648.269 98.5053C646.118 96.1367 643.137 94.9524 639.326 94.9524C636.739 94.9524 634.439 95.5241 632.424 96.6676C630.437 97.7839 628.871 99.4038 627.728 101.527C626.611 103.651 626.053 106.224 626.053 109.246ZM690.198 147.266C686.224 147.266 682.643 146.558 679.458 145.142C676.3 143.699 673.795 141.576 671.944 138.772C670.12 135.967 669.208 132.51 669.208 128.399C669.208 124.859 669.861 121.933 671.168 119.619C672.475 117.304 674.258 115.453 676.518 114.065C678.777 112.676 681.323 111.628 684.154 110.92C687.013 110.185 689.967 109.654 693.016 109.327C696.692 108.946 699.673 108.606 701.96 108.306C704.247 107.98 705.908 107.49 706.942 106.836C708.004 106.156 708.535 105.107 708.535 103.692V103.447C708.535 100.37 707.623 97.988 705.799 96.3001C703.975 94.6121 701.347 93.7681 697.917 93.7681C694.296 93.7681 691.424 94.5576 689.3 96.1367C687.204 97.7158 685.788 99.5807 685.053 101.732L671.25 99.7713C672.339 95.9598 674.135 92.7744 676.64 90.2152C679.145 87.6288 682.208 85.6958 685.829 84.4162C689.45 83.1094 693.452 82.456 697.835 82.456C700.857 82.456 703.866 82.8099 706.86 83.5178C709.855 84.2256 712.591 85.3963 715.069 87.0298C717.546 88.6361 719.534 90.8278 721.031 93.6048C722.556 96.3817 723.318 99.853 723.318 104.018V146H709.106V137.383H708.616C707.718 139.126 706.452 140.759 704.818 142.284C703.212 143.781 701.184 144.993 698.734 145.918C696.311 146.817 693.466 147.266 690.198 147.266ZM694.037 136.403C697.005 136.403 699.578 135.818 701.756 134.647C703.934 133.449 705.608 131.87 706.779 129.91C707.977 127.95 708.576 125.812 708.576 123.498V116.107C708.113 116.488 707.323 116.842 706.207 117.168C705.118 117.495 703.893 117.781 702.532 118.026C701.17 118.271 699.823 118.489 698.489 118.679C697.155 118.87 695.997 119.033 695.017 119.169C692.812 119.469 690.838 119.959 689.096 120.64C687.353 121.32 685.979 122.273 684.971 123.498C683.964 124.696 683.46 126.248 683.46 128.154C683.46 130.876 684.454 132.932 686.441 134.32C688.429 135.709 690.961 136.403 694.037 136.403ZM756.263 170.83C750.954 170.83 746.394 170.108 742.582 168.665C738.771 167.249 735.708 165.344 733.394 162.948C731.08 160.552 729.473 157.897 728.575 154.984L741.888 151.758C742.487 152.983 743.358 154.195 744.502 155.393C745.645 156.618 747.183 157.625 749.116 158.415C751.077 159.232 753.54 159.64 756.508 159.64C760.701 159.64 764.172 158.619 766.922 156.577C769.672 154.562 771.046 151.241 771.046 146.613V134.729H770.311C769.549 136.253 768.433 137.819 766.963 139.425C765.52 141.031 763.6 142.379 761.204 143.468C758.836 144.557 755.855 145.102 752.261 145.102C747.442 145.102 743.072 143.972 739.152 141.712C735.259 139.425 732.155 136.022 729.841 131.502C727.554 126.956 726.41 121.266 726.41 114.432C726.41 107.544 727.554 101.732 729.841 96.9943C732.155 92.2299 735.272 88.6225 739.193 86.1722C743.113 83.6947 747.483 82.456 752.302 82.456C755.977 82.456 758.999 83.0821 761.368 84.3345C763.764 85.5597 765.669 87.0434 767.085 88.7859C768.501 90.5011 769.576 92.121 770.311 93.6456H771.128V83.2727H785.707V147.021C785.707 152.384 784.428 156.822 781.868 160.334C779.309 163.846 775.811 166.473 771.373 168.216C766.935 169.958 761.899 170.83 756.263 170.83ZM756.386 133.504C759.516 133.504 762.185 132.741 764.39 131.217C766.595 129.692 768.269 127.5 769.413 124.642C770.556 121.783 771.128 118.353 771.128 114.35C771.128 110.403 770.556 106.945 769.413 103.978C768.297 101.01 766.636 98.7095 764.431 97.076C762.253 95.4152 759.571 94.5849 756.386 94.5849C753.091 94.5849 750.341 95.4425 748.136 97.1577C745.931 98.8729 744.27 101.228 743.154 104.223C742.038 107.19 741.48 110.566 741.48 114.35C741.48 118.189 742.038 121.552 743.154 124.438C744.297 127.296 745.972 129.529 748.177 131.135C750.41 132.714 753.146 133.504 756.386 133.504ZM819.428 147.225C813.139 147.225 807.708 145.918 803.134 143.305C798.587 140.664 795.089 136.934 792.638 132.115C790.188 127.269 788.963 121.565 788.963 115.004C788.963 108.551 790.188 102.889 792.638 98.0153C795.116 93.1147 798.573 89.3031 803.011 86.5806C807.449 83.8308 812.663 82.456 818.652 82.456C822.518 82.456 826.166 83.0821 829.597 84.3345C833.054 85.5597 836.104 87.4654 838.744 90.0518C841.413 92.6383 843.509 95.9325 845.034 99.9347C846.558 103.91 847.32 108.647 847.32 114.146V118.679H795.905V108.715H833.15C833.122 105.883 832.51 103.365 831.312 101.16C830.114 98.9273 828.44 97.1713 826.289 95.8917C824.165 94.6121 821.688 93.9723 818.856 93.9723C815.834 93.9723 813.18 94.7074 810.893 96.1776C808.606 97.6205 806.823 99.5263 805.543 101.895C804.291 104.236 803.651 106.809 803.624 109.613V118.312C803.624 121.96 804.291 125.091 805.625 127.705C806.959 130.291 808.824 132.278 811.22 133.667C813.615 135.028 816.42 135.709 819.632 135.709C821.783 135.709 823.73 135.409 825.472 134.81C827.215 134.184 828.726 133.272 830.005 132.074C831.285 130.876 832.251 129.393 832.905 127.623L846.708 129.175C845.837 132.823 844.176 136.008 841.726 138.731C839.303 141.426 836.199 143.522 832.415 145.02C828.63 146.49 824.301 147.225 819.428 147.225Z" fill="#F97316"/>
</svg>
