<svg
  width="auto"
  height="223"
  viewBox="0 0 253 223"
  fill="none"
  xmlns="http://www.w3.org/2000/svg"
>
<ellipse cx="114.873" cy="111.402" rx="114.873" ry="111.402" fill="#F5F5F5" />
<ellipse cx="206.492" cy="177.701" rx="46.5074" ry="45.1019" fill="#F5F5F5" />
<path
    d="M167.153 110.951C167.153 137.93 144.451 160.685 115.338 160.685C86.2256 160.685 63.5232 137.93 63.5232 110.951C63.5232 83.9712 86.2256 61.2157 115.338 61.2157C144.451 61.2157 167.153 83.9712 167.153 110.951Z"
    fill="#F5F5F5"
    stroke="#F97316"
    stroke-width="34.0317"
  />
<path
    d="M168.547 77.4498C172.525 73.4245 179.35 75.198 180.719 80.6125L195.687 139.817C197.032 145.138 192.081 150.001 186.734 148.612L128.279 133.422C122.932 132.032 121.152 125.42 125.06 121.464L168.547 77.4498Z"
    fill="#F97316"
  />
<path
    d="M230.56 177.081H228.598L223.551 166.07C223.323 165.572 222.95 165.149 222.479 164.851C222.008 164.554 221.458 164.396 220.895 164.396H199.531C198.969 164.396 198.419 164.554 197.947 164.851C197.476 165.149 197.103 165.572 196.875 166.07L191.828 177.081H189.866C189.481 177.081 189.111 177.23 188.839 177.494C188.566 177.758 188.413 178.117 188.413 178.491C188.413 178.864 188.566 179.223 188.839 179.487C189.111 179.752 189.481 179.9 189.866 179.9H191.32V193.994C191.32 194.742 191.626 195.459 192.171 195.988C192.716 196.516 193.455 196.813 194.226 196.813H198.586C199.357 196.813 200.097 196.516 200.642 195.988C201.187 195.459 201.493 194.742 201.493 193.994V192.585H218.933V193.994C218.933 194.742 219.24 195.459 219.785 195.988C220.33 196.516 221.069 196.813 221.84 196.813H226.2C226.971 196.813 227.71 196.516 228.255 195.988C228.801 195.459 229.107 194.742 229.107 193.994V179.9H230.56C230.946 179.9 231.315 179.752 231.588 179.487C231.86 179.223 232.013 178.864 232.013 178.491C232.013 178.117 231.86 177.758 231.588 177.494C231.315 177.23 230.946 177.081 230.56 177.081ZM195.009 177.081L199.531 167.215H220.895L225.417 177.081H195.009Z"
    fill="#F97316"
  />
</svg>
